<?xml version="1.0" standalone="no"?><!DOCTYPE svg PUBLIC "-//W3C//DTD SVG 1.1//EN" "http://www.w3.org/Graphics/SVG/1.1/DTD/svg11.dtd"><svg t="1716801267068" class="icon" viewBox="0 0 1024 1024" version="1.1" xmlns="http://www.w3.org/2000/svg" p-id="9543" xmlns:xlink="http://www.w3.org/1999/xlink" width="200" height="200"><path d="M663.4496 566.749867A287.744 287.744 0 0 0 790.903467 327.68c0-161.3824-133.5296-292.829867-297.472-292.829867-163.908267 0-295.492267 131.4816-295.492267 290.850134a287.812267 287.812267 0 0 0 127.488 239.069866C151.381333 632.490667 29.969067 795.989333 29.969067 989.252267h69.154133c0-213.333333 154.180267-363.281067 342.391467-385.194667 2.048 0 52.6336-3.959467 95.1296 0h4.027733c0.034133-0.068267 54.442667 0.3072 122.7776-37.307733z m-169.915733-15.837867c-129.058133 0-232.686933-102.024533-232.686934-229.0688 0-127.0784 103.6288-229.102933 232.686934-229.102933s232.686933 102.024533 232.686933 229.102933c0 127.010133-103.6288 229.0688-232.686933 229.0688z m-0.1024-6.109867" fill="#040000" p-id="9544"></path><path d="M795.306667 737.0752c-40.004267 0-72.6016 32.529067-72.6016 72.567467s32.597333 72.567467 72.6016 72.567466c40.0384 0 72.6016-32.529067 72.6016-72.567466s-32.5632-72.567467-72.6016-72.567467z m1.058133 109.806933c-19.933867 0-36.181333-16.247467-36.181333-36.181333s16.247467-36.181333 36.181333-36.181333 36.181333 16.247467 36.181333 36.181333-16.247467 36.181333-36.181333 36.181333z" fill="" p-id="9545"></path><path d="M1001.437867 768.8192c-2.2528-12.014933-9.4208-19.694933-18.193067-19.490133h-1.809067a54.545067 54.545067 0 0 1-54.510933-54.510934c0-9.898667 4.7104-20.753067 4.778667-20.821333a24.746667 24.746667 0 0 0-8.328534-29.832533l-0.546133-0.341334-52.394667-29.149866-0.546133-0.238934a27.5456 27.5456 0 0 0-29.730133 5.905067c-6.417067 6.587733-26.589867 23.722667-42.871467 23.722667-16.384 0-36.727467-17.5104-43.144533-24.200534a27.5456 27.5456 0 0 0-29.661867-6.144l-0.6144 0.238934-54.237867 29.832533-0.580266 0.341333a24.6784 24.6784 0 0 0-8.328534 29.7984c0.068267 0.1024 4.744533 10.9568 4.744534 20.855467 0 30.071467-24.439467 54.510933-54.4768 54.510933h-1.8432c-8.772267-0.2048-15.9744 7.509333-18.193067 19.490134-0.170667 0.9216-4.369067 23.381333-4.369067 41.0624s4.1984 40.174933 4.369067 41.0624c2.218667 11.8784 9.250133 19.490133 17.8176 19.490133h2.218667c30.071467 0 54.4768 24.439467 54.4768 54.510933 0 9.898667-4.676267 20.753067-4.744534 20.821334a24.712533 24.712533 0 0 0 8.2944 29.832533l0.512 0.375467 51.438934 28.740266 0.546133 0.238934a26.897067 26.897067 0 0 0 29.764267-6.212267c6.075733-6.5536 27.0336-25.224533 43.8272-25.224533 16.896 0 37.5808 18.568533 44.100266 25.736533a26.965333 26.965333 0 0 0 19.797334 8.430933h0.034133c3.515733 0 6.8608-0.682667 9.898667-1.979733l0.546133-0.238933 53.3504-29.457067 0.546133-0.375467a24.712533 24.712533 0 0 0 8.328534-29.764266 61.201067 61.201067 0 0 1-4.778667-20.8896c0-30.071467 24.439467-54.510933 54.510933-54.510934h1.809067c8.772267 0.2048 15.940267-7.509333 18.193067-19.490133 0.2048-0.887467 4.4032-23.381333 4.4032-41.0624s-4.1984-40.106667-4.4032-41.0624z m-42.5984 72.192a71.953067 71.953067 0 0 0-68.061867 71.748267c0 12.868267 4.983467 25.122133 6.075733 27.716266l-45.192533 24.917334h-0.068267a3.345067 3.345067 0 0 1-1.4336-0.375467 135.099733 135.099733 0 0 0-16.7936-14.916267c-14.062933-10.4448-27.4432-15.735467-39.765333-15.735466-12.1856 0-25.463467 5.188267-39.458133 15.394133-9.3184 6.894933-15.872 13.789867-16.6912 14.6432a2.833067 2.833067 0 0 1-1.570134 0.375467l-43.52-24.337067c1.058133-2.525867 6.0416-14.848 6.0416-27.716267a71.918933 71.918933 0 0 0-68.061866-71.748266c-0.512-3.003733-3.515733-20.002133-3.515734-32.6656 0-12.6976 3.003733-29.627733 3.515734-32.631467a71.953067 71.953067 0 0 0 68.061866-71.7824c0-12.765867-4.949333-25.088-6.0416-27.716267l46.045867-25.224533h0.170667c0.7168 0 1.467733 0.3072 1.706666 0.477867 0.750933 0.750933 7.236267 7.406933 16.554667 14.0288 13.7216 9.898667 26.794667 14.813867 38.8096 14.813866 11.8784 0 24.814933-4.8128 38.5024-14.5408 9.250133-6.485333 15.701333-13.038933 16.418133-13.7216a3.2768 3.2768 0 0 1 1.706667-0.477866h0.170667l44.475733 24.644266a78.370133 78.370133 0 0 0-6.075733 27.7504 72.021333 72.021333 0 0 0 68.061866 71.7824c0.546133 3.003733 3.549867 19.933867 3.549867 32.631467-0.1024 12.663467-3.106133 29.661867-3.618133 32.6656z" fill="" p-id="9546"></path></svg>