<?xml version="1.0" standalone="no"?><!DOCTYPE svg PUBLIC "-//W3C//DTD SVG 1.1//EN" "http://www.w3.org/Graphics/SVG/1.1/DTD/svg11.dtd"><svg t="1720099903337" class="icon" viewBox="0 0 1175 1024" version="1.1" xmlns="http://www.w3.org/2000/svg" p-id="5080" xmlns:xlink="http://www.w3.org/1999/xlink" width="229.4921875" height="200"><path d="M1108.628099 258.115702l-677.024793 385.763086-4.231405 2.820937c-5.641873 2.820937-10.578512 4.231405-17.630854 4.231404-14.809917 0-27.504132-7.757576-33.85124-20.45179l-2.820936-5.641873-107.195593-230.611571c-1.410468-2.820937-1.410468-5.641873-1.410468-7.757575 0-10.578512 8.46281-19.041322 19.041322-19.041323 4.231405 0 8.46281 1.410468 11.988981 4.231405l126.942149 88.859504c9.168044 5.641873 20.451791 9.168044 32.440771 9.168044 7.052342 0 13.399449-1.410468 20.451791-4.231405l593.807162-260.936639c-106.490358-123.415978-282.093664-204.517906-480.969697-204.517906C264.46281 0 0 216.506887 0 483.790634c0 145.278237 78.986226 277.157025 203.107438 365.311294 9.168044 7.052342 16.220386 19.041322 16.220386 31.030303 0 4.231405-1.410468 7.757576-2.820937 11.988981-9.168044 35.966942-26.093664 95.206612-26.093664 98.027548-1.410468 4.231405-2.820937 9.168044-2.820936 14.809918 0 10.578512 8.46281 19.041322 19.041322 19.041322 4.231405 0 8.46281-1.410468 10.578512-4.231405L345.564738 946.424242c9.168044-5.641873 20.451791-9.168044 31.030303-9.168044 5.641873 0 11.988981 1.410468 17.630854 2.820937 59.944904 17.630854 125.53168 26.798898 191.823692 26.798898 324.407713 0 588.165289-216.506887 588.165289-483.790634 1.410468-81.101928-23.272727-157.267218-65.586777-224.969697z" fill="#09BB07" p-id="5081"></path></svg>